<?xml version="1.0" encoding="UTF-8" standalone="no"?>
        <svg 
    viewBox="5.85 -85.19999999999999 438.45 53.99999999999999"
    width="432.59999999999997"
    height="139.2"
   xmlns="http://www.w3.org/2000/svg"
   xmlns:svg="http://www.w3.org/2000/svg">
   <path d="M138.45-54.15L32.25-54.15Q31.35-10.50 13.80 15.60L13.80 15.60L5.85 8.40Q21.60-14.40 22.20-55.35L22.20-55.35L22.20-86.85L13.20-81.45L6.30-89.70Q32.25-102.45 48.90-123.15L48.90-123.15L59.10-120.90Q57.75-119.10 56.32-117.30Q54.90-115.50 53.40-113.70L53.40-113.70L113.70-113.70L113.70-106.50Q109.20-103.20 104.63-100.27Q100.05-97.35 95.55-94.80L95.55-94.80L140.10-94.80L140.10-85.50L106.50-85.50L106.50-81Q106.50-76.20 111-76.20L111-76.20L136.95-76.20L136.95-69L107.40-69Q96.90-69 96.90-76.80L96.90-76.80L96.90-85.50L75.30-85.50Q68.55-70.95 43.35-67.05L43.35-67.05L39.60-75Q59.85-77.55 66.15-85.50L66.15-85.50L32.25-85.50L32.25-62.25L81.45-62.25Q79.95-64.95 78.30-67.42Q76.65-69.90 74.85-72.15L74.85-72.15L85.95-73.95Q88.95-68.85 91.80-62.25L91.80-62.25L138.45-62.25L138.45-54.15ZM44.25-38.85L44.25-46.65L126.15-46.65L126.15-38.85L44.25-38.85ZM44.25-24L44.25-31.80L126.15-31.80L126.15-24L44.25-24ZM40.80-16.50L128.55-16.50L128.55 15.30L118.65 15.30L118.65 10.20L50.70 10.20L50.70 15.30L40.80 15.30L40.80-16.50ZM50.70-8.40L50.70 1.95L118.65 1.95L118.65-8.40L50.70-8.40ZM33.60-94.80L33.60-94.80L80.25-94.80Q89.40-99.45 97.95-105L97.95-105L45.30-105Q42.45-102.30 39.52-99.83Q36.60-97.35 33.60-94.80ZM193.05-102L177.75-102Q172.35-93.75 165.60-87.60L165.60-87.60L159.15-95.70Q169.80-105.45 177.30-123.60L177.30-123.60L187.05-121.50Q185.10-116.10 183-111.60L183-111.60L225.90-111.60L225.90-102L203.25-102Q202.80-94.05 201.90-87.45L201.90-87.45L230.10-87.45L230.10-77.55L199.65-77.55Q199.35-76.50 199.05-75.45Q198.75-74.40 198.45-73.35L198.45-73.35Q215.55-64.80 227.25-55.80L227.25-55.80L219.60-48.15Q210.30-56.55 195-65.55L195-65.55Q186-49.80 163.65-39.45L163.65-39.45L156.45-48.30Q179.70-58.65 187.20-73.95L187.20-73.95L188.70-77.55L158.55-77.55L158.55-87.45L191.40-87.45Q192.15-90.90 192.53-94.58Q192.90-98.25 193.05-102L193.05-102ZM236.40-57.45L236.40-112.35L285.75-112.35L285.75-57.45L236.40-57.45ZM246.90-67.05L275.25-67.05L275.25-102.75L246.90-102.75L246.90-67.05ZM179.10-46.65L275.10-46.65L275.10 15.30L264.15 15.30L264.15 8.55L189.90 8.55L189.90 15.30L179.10 15.30L179.10-46.65ZM189.90-13.95L189.90-1.05L264.15-1.05L264.15-13.95L189.90-13.95ZM189.90-37.05L189.90-23.40L264.15-23.40L264.15-37.05L189.90-37.05ZM383.55-122.40L383.55-122.40L394.20-121.05Q393-115.50 391.50-110.10Q390-104.70 388.20-99.45L388.20-99.45L438.45-99.45Q438.45-60.75 437.85-36.98Q437.25-13.20 436.05-4.35L436.05-4.35Q433.35 13.80 415.50 13.80L415.50 13.80Q412.65 13.80 407.77 13.57Q402.90 13.35 396 13.20L396 13.20L393.30 3Q399.15 3.15 404.25 3.38Q409.35 3.60 413.55 3.60L413.55 3.60Q423.90 3.60 425.70-8.10L425.70-8.10Q427.50-21 427.95-89.10L427.95-89.10L384-89.10Q376.35-72.60 365.55-59.70L365.55-59.70L358.95-68.25Q377.25-90.30 383.55-122.40ZM331.65-60L331.65-76.95L318.45-76.95L318.45-84.45Q316.50-82.20 314.55-79.95Q312.60-77.70 310.50-75.45L310.50-75.45L304.65-83.55Q312.30-91.50 319.20-100.88Q326.10-110.25 332.40-121.05L332.40-121.05L339.60-121.05Q346.50-113.70 353.10-105.90Q359.70-98.10 366-89.85L366-89.85L359.10-82.50Q352.80-91.35 347.25-98.47Q341.70-105.60 336.90-110.70L336.90-110.70Q328.95-97.35 319.95-86.25L319.95-86.25L354.60-86.25L354.60-76.95L342-76.95L342-60L361.20-60L361.20-50.40L342-50.40L342-5.70Q347.70-7.05 353.25-8.63Q358.80-10.20 364.35-11.85L364.35-11.85L364.35-1.95Q352.05 1.80 338.77 5.02Q325.50 8.25 311.25 10.80L311.25 10.80L308.70 0.60Q320.40-1.20 331.65-3.45L331.65-3.45L331.65-50.40L311.25-50.40L311.25-60L331.65-60ZM310.35-39.30L318.45-42Q322.50-29.25 325.65-12.30L325.65-12.30L317.85-10.50Q316.35-18 314.48-25.20Q312.60-32.40 310.35-39.30L310.35-39.30ZM354.45-43.80L354.45-43.80L362.55-41.70Q361.05-34.35 359.02-27.75Q357-21.15 354.75-15.45L354.75-15.45L347.25-18.15Q351.30-28.35 354.45-43.80ZM374.25-55.35L374.25-65.25L418.05-65.25L418.05-55.35L374.25-55.35ZM371.70-26.40L371.70-36.15L420.30-36.15L420.30-26.40L371.70-26.40Z"/>
    </svg>
        