<svg width="254" height="254" version="1.1" xmlns="http://www.w3.org/2000/svg" xmlns:xlink="http://www.w3.org/1999/xlink"><path d="M198.88 104.60L198.88 104.60Q201.68 106.88 201.68 109.93L201.68 109.93Q200.15 110.19 185.93 110.95L185.93 110.95L184.15 111.20Q170.69 112.47 154.69 115.27L154.69 115.27Q154.18 116.03 152.91 120.09L152.91 120.09Q152.15 122.12 149.61 122.63L149.61 122.63Q144.53 118.82 143.00 107.39L143.00 107.39Q142.49 103.33 142.24 101.80L142.24 101.80Q138.68 83.01 132.84 70.56L132.84 70.56Q134.87 67.77 140.72 69.80L140.72 69.80Q143.51 70.82 144.78 70.82L144.78 70.82Q159.51 71.07 178.31 65.48L178.31 65.48Q187.45 62.94 194.31 59.64L194.31 59.64Q200.66 59.64 208.03 65.74L208.03 65.74Q212.34 69.29 215.14 70.82L215.14 70.82Q216.15 72.85 216.15 74.12L216.15 74.12Q216.15 76.15 210.57 82.25L210.57 82.25L207.77 85.55Q201.17 95.71 198.88 104.60ZM192.79 74.88L192.79 74.88Q189.99 69.29 153.92 77.42L153.92 77.42Q150.62 78.18 149.35 78.44L149.35 78.44L153.16 108.41L184.40 102.31L191.77 83.52Q192.79 79.20 192.79 74.88ZM96.27 111.96L96.27 111.96Q96.01 104.60 106.93 110.69L106.93 110.69Q116.84 116.03 120.65 122.38L120.65 122.38Q121.41 123.65 121.41 124.66L121.41 124.66L120.90 129.24Q120.40 130.51 119.89 131.27L119.89 131.27Q114.55 138.63 96.27 111.96ZM131.06 53.80L131.06 53.80L129.29 55.32Q128.27 55.83 95.00 65.48L95.00 65.48Q93.47 65.99 92.20 66.24L92.20 66.24L98.30 71.32L99.82 74.37L100.08 75.64L95.00 86.56Q96.77 86.56 109.98 83.01L109.98 83.01Q123.44 79.71 129.29 86.56L129.29 86.56Q129.54 88.09 128.78 89.10L128.78 89.10Q128.27 89.61 127.25 89.87L127.25 89.87Q121.41 91.90 98.55 95.45L98.55 95.45Q95.00 95.96 92.20 96.47L92.20 96.47L83.57 119.84Q82.04 122.63 80.77 125.17L80.77 125.17Q67.31 147.27 41.40 158.19L41.40 158.19Q30.99 162.26 26.42 160.99L26.42 160.99Q25.91 160.73 25.15 160.48L25.15 160.48L49.53 144.48Q53.34 141.94 55.88 138.89L55.88 138.89Q72.39 121.62 78.74 99.77L78.74 99.77L38.86 111.71Q36.83 112.22 35.56 112.47L35.56 112.47Q29.46 113.23 23.37 110.44L23.37 110.44Q19.81 108.92 17.53 106.12L17.53 106.12Q17.53 102.57 19.30 101.80L19.30 101.80Q20.07 101.30 37.08 99.26L37.08 99.26Q38.61 99.26 39.37 99.01L39.37 99.01Q42.93 98.50 80.77 90.37L80.77 90.37Q83.82 78.44 82.04 70.56L82.04 70.56Q81.79 69.04 81.28 67.77L81.28 67.77Q73.91 67.26 69.85 65.48L69.85 65.48L57.40 78.18Q49.53 85.29 41.66 86.31L41.66 86.31L42.16 83.52L60.45 62.18Q72.14 46.94 72.64 26.37L72.64 26.37Q72.90 24.84 72.90 23.32L72.90 23.32Q74.17 22.56 79.25 23.06L79.25 23.06Q88.39 26.87 90.68 30.43L90.68 30.43L91.69 32.21L90.93 34.75Q85.34 42.37 74.17 60.15L74.17 60.15Q81.28 60.66 99.31 53.54L99.31 53.54Q113.03 47.96 119.38 47.96L119.38 47.96Q122.68 47.96 130.30 50.75L130.30 50.75Q131.06 51.51 131.06 53.80ZM156.21 238.46L156.21 238.46Q152.91 238.46 150.62 234.90L150.62 234.90Q143.26 222.20 137.92 215.85L137.92 215.85Q106.17 216.87 94.23 218.64L94.23 218.64Q92.20 226.77 87.12 227.79L87.12 227.79Q78.99 220.17 82.80 200.36L82.80 200.36Q85.60 185.12 85.60 183.08L85.60 183.08Q86.36 169.62 85.34 160.48L85.34 160.48Q84.07 150.83 80.52 143.21L80.52 143.21Q83.06 140.41 90.68 144.73L90.68 144.73Q92.46 145.75 93.22 146.25L93.22 146.25Q128.52 141.94 147.57 134.06L147.57 134.06Q153.67 134.57 163.83 140.92L163.83 140.92Q170.94 145.24 170.43 148.29L170.43 148.29Q170.43 149.56 167.39 154.38L167.39 154.38Q165.35 157.68 165.61 160.99L165.61 160.99L166.88 209.25Q167.13 220.93 164.59 227.28L164.59 227.28Q162.05 233.88 156.21 238.46ZM149.86 148.03L149.61 147.78Q146.30 145.75 141.22 146.00L141.22 146.00L139.95 146.25L97.79 153.87Q96.52 163.78 96.52 177.75L96.52 177.75Q121.67 171.91 132.84 171.65L132.84 171.65Q139.70 174.45 140.46 175.21L140.46 175.21Q142.24 176.99 142.24 179.27L142.24 179.27Q140.21 181.56 99.31 185.12L99.31 185.12Q97.28 185.12 96.27 185.37L96.27 185.37L95.76 210.26Q122.43 205.69 127.76 205.18L127.76 205.18Q134.11 204.42 139.95 208.23L139.95 208.23Q142.75 210.01 144.78 212.55L144.78 212.55Q149.10 212.55 150.11 209.25L150.11 209.25Q151.64 204.17 151.89 163.78L151.89 163.78Q151.89 153.62 151.38 152.60L151.38 152.60L149.86 148.03Z" stroke="#000" fill="black" /></svg>