<svg width="254" height="254" version="1.1" xmlns="http://www.w3.org/2000/svg" xmlns:xlink="http://www.w3.org/1999/xlink"><path d="M145.03 121.16L145.03 121.16Q143.51 122.68 138.68 122.68L138.68 122.68Q128.27 116.08 124.21 107.19L124.21 107.19Q124.21 104.90 126.49 104.90L126.49 104.90Q135.38 104.90 141.73 110.49L141.73 110.49Q143.00 111.51 143.76 112.78L143.76 112.78Q145.03 114.81 145.03 121.16ZM216.66 128.78L216.66 128.78Q216.66 132.33 214.38 132.84L214.38 132.84Q213.61 133.10 193.04 133.10L193.04 133.10Q179.32 133.35 150.88 135.38L150.88 135.38Q123.19 137.67 106.17 140.97L106.17 140.97L88.90 144.78Q87.63 145.03 86.36 145.03L86.36 145.03Q81.53 145.29 77.22 142.24L77.22 142.24Q74.68 140.72 73.41 138.43L73.41 138.43Q73.41 136.91 75.18 136.40L75.18 136.40Q79.25 135.64 97.54 133.60L97.54 133.60Q113.28 131.57 144.53 127.25L144.53 127.25L194.31 118.62L194.82 118.62Q202.18 117.60 211.33 124.21L211.33 124.21Q214.63 126.24 216.66 128.78ZM167.89 151.13L167.89 151.13Q167.89 153.92 163.32 154.43L163.32 154.43L132.33 157.48L132.08 157.48L114.30 159.77L112.78 159.77Q107.95 159.77 104.65 156.97L104.65 156.97L103.89 154.69Q115.06 152.15 137.92 147.83L137.92 147.83Q149.61 145.29 151.64 145.03L151.64 145.03Q157.23 144.53 162.05 146.30L162.05 146.30Q166.12 148.08 167.89 151.13ZM195.58 107.95L195.58 107.95Q190.50 113.54 172.97 113.03L172.97 113.03Q154.43 112.27 150.11 104.65L150.11 104.65Q149.61 103.38 146.81 83.57L146.81 83.57Q130.30 85.34 114.05 89.41L114.05 89.41Q119.13 93.98 119.13 101.35L119.13 101.35L105.66 114.81Q95.76 123.19 86.11 123.44L86.11 123.44L86.11 121.92Q101.09 107.95 106.43 98.04L106.43 98.04Q109.22 92.46 106.68 90.68L106.68 90.68Q86.11 92.46 82.30 92.20L82.30 92.20Q79.25 91.95 76.71 91.44L76.71 91.44L75.44 92.20L65.02 150.62Q55.88 194.31 33.78 220.73L33.78 220.73Q29.72 225.55 25.15 230.12L25.15 230.12Q21.34 234.19 17.02 234.19L17.02 234.19L17.53 231.39Q47.24 188.21 55.37 140.46L55.37 140.46Q57.40 128.52 58.42 114.81L58.42 114.81Q59.69 97.03 58.67 91.69Q57.66 86.36 54.86 82.04L54.86 82.04Q54.61 73.41 70.61 83.31L70.61 83.31Q72.14 84.58 73.41 85.34L73.41 85.34Q85.60 84.33 127.25 77.98L127.25 77.98Q138.68 63.75 148.08 49.53L148.08 49.53Q147.32 48.01 145.54 48.01L145.54 48.01L140.46 49.02Q128.78 52.07 120.40 50.55L120.40 50.55Q118.62 50.29 116.84 49.78L116.84 49.78Q99.57 66.04 89.15 70.61L89.15 70.61Q82.80 73.41 76.20 73.91L76.20 73.91L75.44 73.15Q97.79 56.90 107.44 41.91L107.44 41.91Q111.25 35.81 111.76 31.24L111.76 31.24L112.27 25.91Q112.27 25.65 112.52 25.40L112.52 25.40Q122.94 25.40 127.76 33.27L127.76 33.27Q128.52 34.54 128.78 35.56L128.78 35.56L128.78 36.83L121.92 45.21Q134.87 43.18 155.96 36.07L155.96 36.07Q162.05 36.83 169.16 42.93L169.16 42.93Q171.70 45.21 172.72 47.24L172.72 47.24L173.23 49.53Q158.24 57.40 137.92 74.68L137.92 74.68Q140.97 74.17 159.00 68.83L159.00 68.83Q179.58 62.48 189.23 70.10L189.23 70.10Q189.23 71.88 187.20 73.91L187.20 73.91Q180.59 76.71 161.04 80.01L161.04 80.01Q158.75 80.52 156.97 80.77L156.97 80.77L156.21 81.53Q157.48 82.04 160.27 85.09L160.27 85.09L157.73 98.81Q157.73 100.58 158.50 102.11L158.50 102.11Q164.59 108.20 176.78 103.12L176.78 103.12Q184.91 99.57 187.20 100.33L187.20 100.33Q194.56 103.63 195.58 107.95ZM166.12 173.48L166.12 173.48Q166.12 175.26 163.07 176.78L163.07 176.78L124.97 180.59L108.97 182.37Q106.43 182.37 103.12 178.31L103.12 178.31L103.12 177.04L144.27 168.15Q146.30 167.89 148.08 167.64L148.08 167.64Q153.92 166.88 159.00 168.66L159.00 168.66Q163.58 170.18 166.12 173.48ZM185.67 196.60L185.67 196.60Q185.67 200.66 177.55 209.04L177.55 209.04Q174.24 212.60 172.97 214.63L172.97 214.63L168.66 222.25Q173.99 226.57 173.99 229.36L173.99 229.36L172.47 230.63Q141.22 232.16 111.25 235.20L111.25 235.20L109.73 244.09Q109.22 245.11 108.71 245.87L108.71 245.87Q102.87 244.35 100.08 234.95L100.08 234.95L98.30 224.79Q95.50 210.82 88.39 196.09L88.39 196.09Q87.88 189.99 104.65 196.60L104.65 196.60Q122.68 194.31 143.26 189.48L143.26 189.48L159.26 184.91Q160.02 184.91 160.78 184.66L160.78 184.66Q168.91 183.90 180.09 192.02L180.09 192.02Q183.13 194.31 185.67 196.60ZM161.80 198.63L161.80 198.63Q160.02 195.58 154.69 196.09L154.69 196.09L106.68 204.22L109.98 226.82Q135.13 223.77 156.97 219.96L156.97 219.96L161.29 204.22Q161.80 201.42 161.80 198.63Z" stroke="#000" fill="black" /></svg>