<svg width="254" height="254" version="1.1" xmlns="http://www.w3.org/2000/svg" xmlns:xlink="http://www.w3.org/1999/xlink"><path d="M220.73 88.90L220.73 88.90Q215.39 93.98 214.12 104.39L214.12 104.39L208.03 162.31Q205.49 179.58 201.93 193.04L201.93 193.04Q199.14 203.45 190.25 215.90L190.25 215.90Q186.18 221.23 183.13 223.01L183.13 223.01Q181.61 223.77 177.29 223.77L177.29 223.77Q162.31 207.01 158.75 203.71L158.75 203.71Q155.96 201.17 153.42 199.14L153.42 199.14Q149.35 196.09 148.59 193.80L148.59 193.80Q149.61 193.04 150.88 193.04L150.88 193.04L156.21 194.06Q172.72 197.10 181.10 197.10L181.10 197.10Q194.31 186.44 196.60 117.09L196.60 117.09Q196.60 112.78 196.60 108.71L196.60 108.71Q196.60 94.74 196.09 92.20L196.09 92.20Q194.56 86.87 191.01 83.82L191.01 83.82Q187.96 83.82 164.08 89.15L164.08 89.15L149.61 91.44L141.48 91.44L139.45 90.93L128.27 105.92Q122.68 112.27 116.33 114.81L116.33 114.81L114.81 114.81L114.81 112.27Q155.70 48.51 144.02 34.04L144.02 34.04Q143.51 24.64 157.48 32.77L157.48 32.77Q164.85 37.08 167.39 40.39L167.39 40.39Q167.89 41.91 167.89 42.93L167.89 42.93Q167.89 44.96 163.07 51.82L163.07 51.82L161.29 54.61Q155.70 66.04 143.76 84.84L143.76 84.84Q162.56 81.53 176.02 77.72L176.02 77.72L189.99 73.41Q190.75 73.41 191.26 73.41L191.26 73.41Q198.37 72.64 209.55 76.71L209.55 76.71Q215.39 78.99 218.19 81.53L218.19 81.53Q220.73 83.57 220.73 88.90ZM176.02 118.62L176.02 118.62Q176.02 124.46 155.45 125.48L155.45 125.48Q146.05 125.98 138.43 124.97L138.43 124.97L131.57 123.44Q131.32 123.19 131.06 123.19L131.06 123.19L130.30 121.67Q134.37 118.87 159.51 114.81L159.51 114.81Q164.59 114.05 166.12 114.05L166.12 114.05Q172.72 114.05 176.02 118.62ZM178.82 150.11L178.82 150.11Q178.82 152.91 176.02 153.67L176.02 153.67Q151.89 161.29 137.67 161.29L137.67 161.29Q130.05 161.29 123.95 158.75L123.95 158.75L121.67 156.46L123.95 154.43Q139.45 152.91 152.91 149.10L152.91 149.10L165.61 145.54L166.62 145.54Q170.43 145.29 174.50 147.32L174.50 147.32Q177.29 148.59 178.82 150.11ZM116.59 66.80L115.06 69.60L110.49 69.09L84.84 51.31Q84.07 51.05 83.57 50.55L83.57 50.55Q73.15 68.58 50.80 96.01L50.80 96.01Q23.62 129.54 12.95 129.54L12.95 129.54L12.95 126.75Q64.52 67.06 74.17 35.81L74.17 35.81Q75.18 32.51 73.15 23.11L73.15 23.11Q72.64 20.32 72.39 18.54L72.39 18.54L73.66 17.78Q81.79 18.03 89.92 24.38L89.92 24.38Q95.25 28.45 95.25 32.77L95.25 32.77Q95.25 35.31 90.17 40.64L90.17 40.64L86.87 44.45L86.87 44.70L88.14 45.72L104.14 50.04Q116.33 54.36 117.09 62.74L117.09 62.74Q117.35 65.02 116.59 66.80L116.59 66.80ZM115.82 139.95L115.82 139.95L94.49 155.19Q93.22 155.70 91.95 156.46L91.95 156.46Q91.95 153.92 96.77 145.80L96.77 145.80Q101.35 137.67 101.35 130.81L101.35 130.81Q105.16 128.52 111.76 133.35L111.76 133.35Q116.08 136.65 115.82 139.95ZM110.49 161.54L110.49 161.54Q109.98 164.34 106.68 166.88L106.68 166.88Q98.30 172.47 73.91 182.88L73.91 182.88Q55.63 190.75 46.23 198.12L46.23 198.12L42.42 197.61Q41.15 196.34 34.04 192.28L34.04 192.28Q27.43 188.47 27.43 182.63L27.43 182.63Q29.46 180.59 36.58 180.85L36.58 180.85Q39.12 181.10 40.39 180.59L40.39 180.59L73.66 171.45L74.17 133.10L57.66 134.62L51.31 133.86Q48.51 132.84 46.74 131.06L46.74 131.06Q46.74 129.79 49.53 128.78L49.53 128.78Q50.29 128.52 50.55 128.02L50.55 128.02Q65.28 126.75 74.17 123.19L74.17 123.19Q73.66 112.52 71.63 103.12L71.63 103.12L59.44 102.36Q55.12 101.60 53.09 98.81L53.09 98.81Q53.09 97.03 55.63 96.52L55.63 96.52L87.12 88.39Q89.66 87.63 91.69 86.61L91.69 86.61Q102.36 86.61 106.68 89.92L106.68 89.92L106.17 92.96Q92.46 97.79 81.53 100.84L81.53 100.84Q86.61 104.90 87.88 106.43L87.88 106.43L86.87 118.62L86.87 118.87Q93.73 115.57 102.36 116.08L102.36 116.08Q108.71 116.59 109.22 120.90L109.22 120.90L108.71 122.17Q101.09 125.98 86.61 129.29L86.61 129.29L85.85 130.30L84.33 167.64Q87.63 167.39 100.58 163.32L100.58 163.32Q106.17 161.54 110.49 161.54ZM56.90 167.89L56.90 167.89L53.09 166.88L36.32 148.34Q35.56 147.32 35.56 147.07L35.56 147.07L36.58 144.02Q43.69 144.02 53.34 149.86L53.34 149.86Q60.45 153.92 60.45 157.99L60.45 157.99Q60.45 165.10 58.93 166.62L58.93 166.62Q58.17 167.39 56.90 167.89Z" stroke="#000" fill="black" /></svg>